<svg width="42" height="42" viewBox="0 0 42 42" fill="none" xmlns="http://www.w3.org/2000/svg">
<path d="M32.3764 7.26624C31.8899 7.26624 31.4143 7.41404 31.0097 7.69094C30.6052 7.96784 30.2899 8.36141 30.1037 8.82188C29.9175 9.28235 29.8688 9.78904 29.9637 10.2779C30.0586 10.7667 30.2929 11.2157 30.637 11.5682C30.981 11.9206 31.4193 12.1606 31.8965 12.2578C32.3737 12.3551 32.8683 12.3052 33.3178 12.1144C33.7674 11.9237 34.1515 11.6007 34.4219 11.1863C34.6922 10.7719 34.8364 10.2847 34.8364 9.78624C34.8364 9.1179 34.5773 8.47693 34.1159 8.00433C33.6546 7.53174 33.0289 7.26624 32.3764 7.26624ZM41.8064 12.3482C41.7666 10.6059 41.448 8.88199 40.8634 7.24524C40.3422 5.84482 39.5309 4.57673 38.4854 3.52824C37.4703 2.45184 36.2295 1.62601 34.8569 1.11324C33.2634 0.496182 31.5787 0.162385 29.8754 0.126244C27.7024 0.000244023 27.0054 0.000244141 21.4294 0.000244141C15.8534 0.000244141 15.1564 0.000244023 12.9834 0.126244C11.2802 0.162385 9.5955 0.496182 8.00194 1.11324C6.63188 1.63121 5.39216 2.45632 4.37344 3.52824C3.32267 4.56812 2.51651 5.83917 2.01594 7.24524C1.41357 8.87766 1.08772 10.6035 1.05244 12.3482C0.929443 14.5742 0.929443 15.2882 0.929443 21.0002C0.929443 26.7122 0.929443 27.4262 1.05244 29.6522C1.08772 31.397 1.41357 33.1228 2.01594 34.7552C2.51651 36.1613 3.32267 37.4324 4.37344 38.4722C5.39216 39.5442 6.63188 40.3693 8.00194 40.8872C9.5955 41.5043 11.2802 41.8381 12.9834 41.8742C15.1564 42.0002 15.8534 42.0002 21.4294 42.0002C27.0054 42.0002 27.7024 42.0002 29.8754 41.8742C31.5787 41.8381 33.2634 41.5043 34.8569 40.8872C36.2295 40.3745 37.4703 39.5486 38.4854 38.4722C39.5355 37.4277 40.3475 36.1585 40.8634 34.7552C41.448 33.1185 41.7666 31.3946 41.8064 29.6522C41.8064 27.4262 41.9294 26.7122 41.9294 21.0002C41.9294 15.2882 41.9294 14.5742 41.8064 12.3482ZM38.1164 29.4002C38.1015 30.7333 37.8658 32.054 37.4194 33.3062C37.0921 34.2201 36.5664 35.0459 35.8819 35.7212C35.217 36.4153 34.4126 36.9528 33.5244 37.2962C32.302 37.7535 31.0127 37.995 29.7114 38.0102C27.6614 38.1152 26.9029 38.1362 21.5114 38.1362C16.1199 38.1362 15.3614 38.1362 13.3114 38.0102C11.9603 38.0362 10.6149 37.823 9.33444 37.3802C8.4853 37.0192 7.71772 36.4831 7.07944 35.8052C6.39902 35.1306 5.87987 34.3041 5.56244 33.3902C5.06195 32.1201 4.78435 30.7693 4.74244 29.4002C4.74244 27.3002 4.61944 26.5232 4.61944 21.0002C4.61944 15.4772 4.61944 14.7002 4.74244 12.6002C4.75163 11.2375 4.99449 9.88693 5.45994 8.61024C5.82084 7.72386 6.37479 6.93373 7.07944 6.30024C7.70226 5.5782 8.47198 5.00475 9.33444 4.62024C10.584 4.15834 11.901 3.91691 13.2294 3.90624C15.2794 3.90624 16.0379 3.78024 21.4294 3.78024C26.8209 3.78024 27.5794 3.78024 29.6294 3.90624C30.9307 3.92153 32.22 4.16296 33.4424 4.62024C34.374 4.97441 35.2101 5.55022 35.8819 6.30024C36.5537 6.94532 37.0787 7.73398 37.4194 8.61024C37.8751 9.889 38.1109 11.239 38.1164 12.6002C38.2189 14.7002 38.2394 15.4772 38.2394 21.0002C38.2394 26.5232 38.2189 27.3002 38.1164 29.4002ZM21.4294 10.2272C19.3504 10.2314 17.3191 10.8667 15.5924 12.053C13.8657 13.2393 12.5209 14.9233 11.7281 16.8921C10.9353 18.861 10.7299 21.0264 11.138 23.1148C11.5461 25.2032 12.5493 27.1208 14.0209 28.6253C15.4925 30.1298 17.3664 31.1538 19.4058 31.5678C21.4452 31.9817 23.5587 31.7672 25.4792 30.9512C27.3996 30.1352 29.0408 28.7544 30.1955 26.9832C31.3502 25.2121 31.9664 23.13 31.9664 21.0002C31.9692 19.583 31.6983 18.1791 31.1695 16.8695C30.6407 15.5598 29.8643 14.3701 28.885 13.3689C27.9058 12.3678 26.7429 11.5748 25.4634 11.0356C24.1839 10.4964 22.813 10.2217 21.4294 10.2272ZM21.4294 27.9932C20.0793 27.9932 18.7595 27.5831 17.6368 26.8147C16.5142 26.0463 15.6393 24.9542 15.1226 23.6763C14.6059 22.3985 14.4707 20.9925 14.7341 19.636C14.9975 18.2795 15.6477 17.0334 16.6024 16.0554C17.5571 15.0775 18.7734 14.4114 20.0977 14.1416C21.4219 13.8718 22.7945 14.0103 24.0418 14.5396C25.2892 15.0688 26.3554 15.9651 27.1055 17.1151C27.8556 18.2651 28.2559 19.6172 28.2559 21.0002C28.2559 21.9186 28.0794 22.8279 27.7363 23.6763C27.3932 24.5248 26.8904 25.2957 26.2565 25.945C25.6226 26.5944 24.8701 27.1095 24.0418 27.4609C23.2136 27.8124 22.3259 27.9932 21.4294 27.9932Z" fill="#F5F5F5"/>
</svg>
