<svg width="42" height="42" viewBox="0 0 42 42" fill="none" xmlns="http://www.w3.org/2000/svg">
<path d="M9.53433 42V13.6627H0.531182V42H9.53433ZM5.03392 9.79137C8.17348 9.79137 10.1277 7.61539 10.1277 4.89614C10.0692 2.11558 8.1736 0 5.0935 0C2.01388 0 0 2.11562 0 4.89614C0 7.61552 1.95374 9.79137 4.97515 9.79137H5.03364H5.03392ZM14.5175 42H23.5207V26.175C23.5207 25.3281 23.5792 24.4821 23.8169 23.8766C24.4678 22.1845 25.9492 20.4319 28.4362 20.4319C31.6941 20.4319 32.9974 23.0306 32.9974 26.8399V41.9998H42V25.7514C42 17.0473 37.5583 12.9974 31.6348 12.9974C26.778 12.9974 24.6455 15.8375 23.4608 17.7719H23.5209V13.6621H14.5177C14.6359 16.3211 14.5177 41.9994 14.5177 41.9994L14.5175 42Z" fill="#F5F5F5"/>
</svg>
